<svg xmlns="http://www.w3.org/2000/svg" version="1.1" xmlns:xlink="http://www.w3.org/1999/xlink" xmlns:svgjs="http://svgjs.dev/svgjs" width="1500" height="223" viewBox="0 0 1500 223"><g transform="matrix(1,0,0,1,-0.9090909090909918,-0.3441608467938977)"><svg viewBox="0 0 396 59" data-background-color="#000000" preserveAspectRatio="xMidYMid meet" height="223" width="1500" xmlns="http://www.w3.org/2000/svg" xmlns:xlink="http://www.w3.org/1999/xlink"><g id="tight-bounds" transform="matrix(1,0,0,1,0.2400000000000091,0.09105600879300368)"><svg viewBox="0 0 395.52 58.81788798241398" height="58.81788798241398" width="395.52"><g><svg viewBox="0 0 500.16451361926863 74.37960238379023" height="58.81788798241398" width="395.52"><g></g><g transform="matrix(1,0,0,1,104.64451361926865,10.27967008343266)"><svg viewBox="0 0 395.52 53.82026221692491" height="53.82026221692491" width="395.52"><g id="textblocktransform"><svg viewBox="0 0 395.52 53.82026221692491" height="53.82026221692491" width="395.52" id="textblock"><g><svg viewBox="0 0 395.52 53.82026221692491" height="53.82026221692491" width="395.52"><g transform="matrix(1,0,0,1,0,0)"><svg width="395.52" viewBox="0.5 -34.25 251.68 34.25" height="53.82026221692491" data-palette-color="url(#01cc2076-c7f5-4f57-8e86-4c94f5bac667)"><g class="wordmark-text-0" data-fill-palette-color="primary" id="text-0"></g></svg></g></svg></g></svg></g></svg></g><g><svg viewBox="0 0 74.37960238379023 74.37960238379023" height="74.37960238379023" width="74.37960238379023"><g><svg xmlns="http://www.w3.org/2000/svg" xmlns:xlink="http://www.w3.org/1999/xlink" version="1.1" x="0" y="0" viewBox="3 3 42 42" enable-background="new 0 0 48 48" xml:space="preserve" height="74.37960238379023" width="74.37960238379023" class="icon-icon-0" data-fill-palette-color="accent" id="icon-0"></svg></g></svg></g></svg></g><defs></defs><mask id="b14f7a9f-2aad-48e9-8d20-5af6b7507245"><g id="SvgjsG1617"><svg viewBox="0 0 395.52 58.81788798241398" height="58.81788798241398" width="395.52"><g><svg viewBox="0 0 500.16451361926863 74.37960238379023" height="58.81788798241398" width="395.52"><g><rect width="4.853566789232896" height="54.08936352800953" x="87.08527460691299" y="10.14511942789035" fill="white" opacity="1" stroke-width="0" stroke="transparent" fill-opacity="1" class="rect-qz-0" rx="1%" id="SvgjsRect1616" data-palette-color="url(#01cc2076-c7f5-4f57-8e86-4c94f5bac667)"></rect></g><g transform="matrix(1,0,0,1,104.64451361926865,10.27967008343266)"><svg viewBox="0 0 395.52 53.82026221692491" height="53.82026221692491" width="395.52"><g id="SvgjsG1615"><svg viewBox="0 0 395.52 53.82026221692491" height="53.82026221692491" width="395.52" id="SvgjsSvg1614"><g><svg viewBox="0 0 395.52 53.82026221692491" height="53.82026221692491" width="395.52"><g transform="matrix(1,0,0,1,0,0)"><svg width="395.52" viewBox="0.5 -34.25 251.68 34.25" height="53.82026221692491" data-palette-color="url(#01cc2076-c7f5-4f57-8e86-4c94f5bac667)"><g class="wordmark-text-0" data-fill-palette-color="primary" id="SvgjsG1613"><path d="M21.75-32.1L32-0.6 32-0.45 23.5-0.45Q23.15-1.65 22.68-3.2 22.2-4.75 21.65-6.5L21.65-6.5 10.85-6.5Q9.85-3 9-0.45L9-0.45 0.5-0.45 0.5-0.55 10.75-32.1 21.75-32.1ZM16.35-26.4L16.15-26.4Q15.65-23.85 14.7-20.2 13.75-16.55 12.7-12.75L12.7-12.75 19.85-12.75Q18.75-16.55 17.8-20.2 16.85-23.85 16.35-26.4L16.35-26.4ZM34.25-7.25L34.4-7.35Q38.3-6.25 43.05-6.25L43.05-6.25Q45.35-6.25 46.5-6.4 47.65-6.55 48.05-6.9 48.45-7.25 48.45-7.85L48.45-7.85Q48.45-8.7 47.82-8.9 47.2-9.1 45.35-9.45L45.35-9.45 41.4-10.2Q37.6-10.95 35.92-12.58 34.25-14.2 34.25-17.45L34.25-17.45Q34.25-21.85 36.87-23.45 39.5-25.05 45.25-25.05L45.25-25.05Q48.7-25.05 51.32-24.68 53.95-24.3 55.7-23.75L55.7-23.75 55.6-17.7 55.45-17.55Q51.4-18.85 46.6-18.85L46.6-18.85Q44.25-18.85 43.32-18.53 42.4-18.2 42.4-17.25L42.4-17.25Q42.4-16.75 42.67-16.45 42.95-16.15 43.95-15.88 44.95-15.6 47.1-15.2L47.1-15.2 50.75-14.5Q53.8-13.85 55.25-12.35 56.7-10.85 56.7-7.6L56.7-7.6Q56.7-4.75 55.65-3.08 54.6-1.4 52.12-0.7 49.65 0 45.3 0L45.3 0Q42 0 39.22-0.33 36.45-0.65 34.25-1.1L34.25-1.1 34.25-7.25ZM61.45-7.75L61.45-7.75 61.45-18.25 58.45-18.25 58.45-24.75 62.2-24.75 63.7-30.7 69.45-30.7 69.45-24.75 74.9-24.75 74.9-18.25 69.45-18.25 69.45-9.5Q69.45-8.1 69.8-7.58 70.15-7.05 71.4-7.05L71.4-7.05Q72.2-7.05 73.1-7.13 74-7.2 74.9-7.3L74.9-7.3 75.05-7.2 75.05-0.7Q72.65 0 68.7 0L68.7 0Q64.75 0 63.1-1.8 61.45-3.6 61.45-7.75ZM87.64-9.25L87.54-0.45 79.54-0.45 79.54-24.8 86.04-24.8 86.69-19.8 86.84-19.8Q87.29-22.6 88.99-23.83 90.69-25.05 94.04-25.05L94.04-25.05Q95.39-25.05 96.49-24.93 97.59-24.8 98.34-24.7L98.34-24.7 98.34-16.9 98.24-16.8Q97.44-17 96.42-17.15 95.39-17.3 94.09-17.3L94.09-17.3Q92.24-17.3 90.77-16.7 89.29-16.1 88.47-14.38 87.64-12.65 87.64-9.25L87.64-9.25 87.64-9.25ZM100.09-12.45L100.09-12.45Q100.09-19.15 102.94-22.1 105.79-25.05 112.59-25.05L112.59-25.05Q117.14-25.05 119.89-23.75 122.64-22.45 123.87-19.68 125.09-16.9 125.09-12.45L125.09-12.45Q125.09-8.05 123.87-5.3 122.64-2.55 119.89-1.28 117.14 0 112.59 0L112.59 0Q105.79 0 102.94-2.93 100.09-5.85 100.09-12.45ZM112.59-6.85L112.59-6.85Q115.49-6.85 116.52-8.13 117.54-9.4 117.54-12.6L117.54-12.6Q117.54-15.65 116.52-16.98 115.49-18.3 112.59-18.3L112.59-18.3Q109.79-18.3 108.72-16.98 107.64-15.65 107.64-12.6L107.64-12.6Q107.64-9.4 108.72-8.13 109.79-6.85 112.59-6.85ZM137.34-8.2L137.34-0.45 129.34-0.45 129.34-32.1 143.44-32.1Q148.19-32.1 151.04-30.95 153.89-29.8 155.14-27.2 156.39-24.6 156.39-20.15L156.39-20.15Q156.39-15.95 155.14-13.33 153.89-10.7 151.04-9.45 148.19-8.2 143.44-8.2L143.44-8.2 137.34-8.2ZM142.14-25.55L142.14-25.55 137.34-25.55 137.34-14.75 142.14-14.75Q145.69-14.75 146.89-15.95 148.09-17.15 148.09-20.15L148.09-20.15Q148.09-23 146.89-24.28 145.69-25.55 142.14-25.55ZM182.09-6.8L182.09-1.25Q180.69-0.75 178.21-0.38 175.74 0 172.34 0L172.34 0Q168.04 0 165.01-1.13 161.99-2.25 160.44-4.98 158.89-7.7 158.89-12.55L158.89-12.55Q158.89-19.15 161.91-22.1 164.94-25.05 171.29-25.05L171.29-25.05Q175.84-25.05 178.46-23.75 181.09-22.45 182.21-20.08 183.34-17.7 183.34-14.45L183.34-14.45Q183.34-13.5 183.26-12.4 183.19-11.3 182.99-10.25L182.99-10.25 182.79-10.05 166.34-10.05Q166.69-7.85 168.41-7.15 170.14-6.45 174.04-6.45L174.04-6.45Q176.64-6.45 178.36-6.58 180.09-6.7 181.89-6.95L181.89-6.95 182.09-6.8ZM166.19-15.3L176.39-15.3Q176.39-16.5 176.01-17.38 175.64-18.25 174.54-18.73 173.44-19.2 171.29-19.2L171.29-19.2Q168.14-19.2 167.16-18.13 166.19-17.05 166.19-15.3L166.19-15.3ZM210.38-0.45L202.78-0.45 202.48-4 202.28-4Q201.43-2 199.86-1 198.28 0 195.28 0L195.28 0Q190.43 0 188.18-2.83 185.93-5.65 185.83-11.35L185.83-11.35Q185.78-16.45 186.88-19.45 187.98-22.45 190.33-23.75 192.68-25.05 196.33-25.05L196.33-25.05Q198.23-25.05 199.78-24.73 201.33-24.4 202.28-23.85L202.28-23.85 202.38-23.9 202.38-34.1 210.38-34.1 210.38-0.45ZM197.88-6.8L197.88-6.8Q199.88-6.8 201.13-8.05 202.38-9.3 202.38-12.2L202.38-12.2 202.38-17.45Q200.53-18.2 198.03-18.2L198.03-18.2Q195.68-18.2 194.66-17.07 193.63-15.95 193.63-12.55L193.63-12.55Q193.63-9.65 194.46-8.22 195.28-6.8 197.88-6.8ZM223.93-33.85L223.93-33.85Q224.08-32.05 224.08-30.85L224.08-30.85Q224.08-30.15 224.06-29.43 224.03-28.7 223.93-27.8L223.93-27.8Q222.88-27.6 221.88-27.5 220.88-27.4 219.88-27.4L219.88-27.4Q218.93-27.4 217.96-27.5 216.98-27.6 215.98-27.8L215.98-27.8Q215.88-28.65 215.83-29.38 215.78-30.1 215.78-30.8L215.78-30.8Q215.78-31.45 215.83-32.2 215.88-32.95 215.98-33.85L215.98-33.85Q216.98-34.1 218.01-34.18 219.03-34.25 220.03-34.25L220.03-34.25Q220.98-34.25 221.96-34.18 222.93-34.1 223.93-33.85ZM223.93-24.8L223.93-0.45 215.93-0.45 215.93-24.8 223.93-24.8ZM238.73-25.05L238.73-25.05Q243.53-25.05 246.48-24.05 249.43-23.05 250.8-20.38 252.18-17.7 252.18-12.65L252.18-12.65 252.18-0.45 244.93-0.45 244.68-2.75 244.53-2.75Q243.58-1.5 241.58-0.75 239.58 0 236.38 0L236.38 0Q227.73 0 227.73-8.1L227.73-8.1Q227.73-11.55 230-13.53 232.28-15.5 237.18-15.5L237.18-15.5 244.58-15.5Q244.23-17.6 242.78-18.32 241.33-19.05 237.83-19.05L237.83-19.05Q235.63-19.05 233.5-18.73 231.38-18.4 229.78-18L229.78-18 229.63-18.1 229.68-23.9Q230.68-24.2 232.23-24.48 233.78-24.75 235.5-24.9 237.23-25.05 238.73-25.05ZM238.43-5.9L238.43-5.9Q241.53-5.9 243.08-6.68 244.63-7.45 244.68-9.15L244.68-9.15 244.68-10.4 239.03-10.4Q236.83-10.4 235.95-9.78 235.08-9.15 235.08-8.1L235.08-8.1Q235.08-6.85 235.98-6.38 236.88-5.9 238.43-5.9Z" fill="white"></path></g></svg></g></svg></g></svg></g></svg></g><g><svg viewBox="0 0 74.37960238379023 74.37960238379023" height="74.37960238379023" width="74.37960238379023"><g><svg xmlns="http://www.w3.org/2000/svg" xmlns:xlink="http://www.w3.org/1999/xlink" version="1.1" x="0" y="0" viewBox="3 3 42 42" enable-background="new 0 0 48 48" xml:space="preserve" height="74.37960238379023" width="74.37960238379023" class="icon-icon-0" data-fill-palette-color="accent" id="SvgjsSvg1612"><path fill-rule="evenodd" clip-rule="evenodd" d="M24 45C12.402 45 3 35.598 3 24S12.402 3 24 3s21 9.402 21 21S35.598 45 24 45zM24 5C13.507 5 5 13.507 5 24s8.507 19 19 19 19-8.507 19-19S34.493 5 24 5zM40 25h-1c-0.553 0-1-0.447-1-1s0.447-1 1-1h1c0.553 0 1 0.447 1 1S40.553 25 40 25zM33.979 33.204c-0.032 0.188-0.115 0.367-0.261 0.514-0.308 0.307-0.762 0.355-1.129 0.172l0.058 0.059 0.008 0.008 0 0 0 0c-0.162-0.067-0.306-0.13-0.464-0.195-5.189-2.162-8.213-3.856-9.867-4.938-1.313-0.858-1.775-1.333-1.794-1.353-0.045-0.043-2.488-2.412-6.485-12.125l0.001 0c0 0 0 0-0.001 0l0.067 0.067c-0.01-0.02-0.012-0.042-0.02-0.062C14 15.139 13.99 14.908 14.054 14.69c0.044-0.147 0.111-0.29 0.229-0.407 0.299-0.299 0.738-0.35 1.101-0.181 0.009 0.004 0.02 0.005 0.028 0.01l-0.023-0.025-0.043-0.042c0 0 0 0 0.001 0l-0.001 0c9.713 3.997 12.082 6.44 12.125 6.485 0.045 0.043 2.488 2.413 6.485 12.125l-0.001-0.001c0.001 0 0.001 0.001 0.001 0.001l-0.044-0.044-0.023-0.022c0.023 0.047 0.032 0.097 0.048 0.146C33.986 32.888 34.006 33.047 33.979 33.204zM26.046 21.933c-0.021-0.021-2.016-1.927-9.187-5.073 3.146 7.171 5.055 9.167 5.095 9.208 0.021 0.021 2.016 1.928 9.187 5.073C27.995 23.969 26.086 21.974 26.046 21.933zM24 23c0.553 0 1 0.447 1 1s-0.447 1-1 1-1-0.447-1-1S23.447 23 24 23zM24 10c-0.553 0-1-0.448-1-1V8c0-0.552 0.447-1 1-1s1 0.448 1 1v1C25 9.552 24.553 10 24 10zM24 38c0.553 0 1 0.447 1 1v1c0 0.553-0.447 1-1 1s-1-0.447-1-1v-1C23 38.447 23.447 38 24 38zM9 25H8c-0.553 0-1-0.447-1-1s0.447-1 1-1h1c0.553 0 1 0.447 1 1S9.553 25 9 25z" fill="black"></path></svg></g></svg></g></svg></g><defs><mask></mask></defs></svg><rect width="395.52" height="58.81788798241398" fill="black" stroke="none" visibility="hidden"></rect></g></mask><linearGradient x1="0" x2="1" y1="0.578" y2="0.595" id="01cc2076-c7f5-4f57-8e86-4c94f5bac667"><stop stop-color="#6ee2f5" offset="0"></stop><stop stop-color="#6454f0" offset="1"></stop></linearGradient><rect width="395.52" height="58.81788798241398" fill="url(#01cc2076-c7f5-4f57-8e86-4c94f5bac667)" mask="url(#b14f7a9f-2aad-48e9-8d20-5af6b7507245)" data-fill-palette-color="primary"></rect><mask id="d948739a-cd25-4e78-88bd-834e6a35729a"><g id="SvgjsG1640"><svg viewBox="0 0 395.52 58.81788798241398" height="58.81788798241398" width="395.52"><g><svg viewBox="0 0 500.16451361926863 74.37960238379023" height="58.81788798241398" width="395.52"><g></g><g transform="matrix(1,0,0,1,104.64451361926865,10.27967008343266)"><svg viewBox="0 0 395.52 53.82026221692491" height="53.82026221692491" width="395.52"><g id="SvgjsG1639"><svg viewBox="0 0 395.52 53.82026221692491" height="53.82026221692491" width="395.52" id="SvgjsSvg1638"><g><svg viewBox="0 0 395.52 53.82026221692491" height="53.82026221692491" width="395.52"><g transform="matrix(1,0,0,1,0,0)"><svg width="395.52" viewBox="0.5 -34.25 251.68 34.25" height="53.82026221692491" data-palette-color="url(#01cc2076-c7f5-4f57-8e86-4c94f5bac667)"><g class="wordmark-text-0" data-fill-palette-color="primary" id="SvgjsG1637"></g></svg></g></svg></g></svg></g></svg></g><g><svg viewBox="0 0 74.37960238379023 74.37960238379023" height="74.37960238379023" width="74.37960238379023"><g><svg xmlns="http://www.w3.org/2000/svg" xmlns:xlink="http://www.w3.org/1999/xlink" version="1.1" x="0" y="0" viewBox="3 3 42 42" enable-background="new 0 0 48 48" xml:space="preserve" height="74.37960238379023" width="74.37960238379023" class="icon-icon-0" data-fill-palette-color="accent" id="SvgjsSvg1636"><path fill-rule="evenodd" clip-rule="evenodd" d="M24 45C12.402 45 3 35.598 3 24S12.402 3 24 3s21 9.402 21 21S35.598 45 24 45zM24 5C13.507 5 5 13.507 5 24s8.507 19 19 19 19-8.507 19-19S34.493 5 24 5zM40 25h-1c-0.553 0-1-0.447-1-1s0.447-1 1-1h1c0.553 0 1 0.447 1 1S40.553 25 40 25zM33.979 33.204c-0.032 0.188-0.115 0.367-0.261 0.514-0.308 0.307-0.762 0.355-1.129 0.172l0.058 0.059 0.008 0.008 0 0 0 0c-0.162-0.067-0.306-0.13-0.464-0.195-5.189-2.162-8.213-3.856-9.867-4.938-1.313-0.858-1.775-1.333-1.794-1.353-0.045-0.043-2.488-2.412-6.485-12.125l0.001 0c0 0 0 0-0.001 0l0.067 0.067c-0.01-0.02-0.012-0.042-0.02-0.062C14 15.139 13.99 14.908 14.054 14.69c0.044-0.147 0.111-0.29 0.229-0.407 0.299-0.299 0.738-0.35 1.101-0.181 0.009 0.004 0.02 0.005 0.028 0.01l-0.023-0.025-0.043-0.042c0 0 0 0 0.001 0l-0.001 0c9.713 3.997 12.082 6.44 12.125 6.485 0.045 0.043 2.488 2.413 6.485 12.125l-0.001-0.001c0.001 0 0.001 0.001 0.001 0.001l-0.044-0.044-0.023-0.022c0.023 0.047 0.032 0.097 0.048 0.146C33.986 32.888 34.006 33.047 33.979 33.204zM26.046 21.933c-0.021-0.021-2.016-1.927-9.187-5.073 3.146 7.171 5.055 9.167 5.095 9.208 0.021 0.021 2.016 1.928 9.187 5.073C27.995 23.969 26.086 21.974 26.046 21.933zM24 23c0.553 0 1 0.447 1 1s-0.447 1-1 1-1-0.447-1-1S23.447 23 24 23zM24 10c-0.553 0-1-0.448-1-1V8c0-0.552 0.447-1 1-1s1 0.448 1 1v1C25 9.552 24.553 10 24 10zM24 38c0.553 0 1 0.447 1 1v1c0 0.553-0.447 1-1 1s-1-0.447-1-1v-1C23 38.447 23.447 38 24 38zM9 25H8c-0.553 0-1-0.447-1-1s0.447-1 1-1h1c0.553 0 1 0.447 1 1S9.553 25 9 25z" fill="white"></path></svg></g></svg></g></svg></g><defs><mask></mask></defs><mask><g id="SvgjsG1635"><svg viewBox="0 0 395.52 58.81788798241398" height="58.81788798241398" width="395.52"><g><svg viewBox="0 0 500.16451361926863 74.37960238379023" height="58.81788798241398" width="395.52"><g><rect width="4.853566789232896" height="54.08936352800953" x="87.08527460691299" y="10.14511942789035" fill="black" opacity="1" stroke-width="0" stroke="transparent" fill-opacity="1" class="rect-qz-0" rx="1%" id="SvgjsRect1634" data-palette-color="url(#01cc2076-c7f5-4f57-8e86-4c94f5bac667)"></rect></g><g transform="matrix(1,0,0,1,104.64451361926865,10.27967008343266)"><svg viewBox="0 0 395.52 53.82026221692491" height="53.82026221692491" width="395.52"><g id="SvgjsG1633"><svg viewBox="0 0 395.52 53.82026221692491" height="53.82026221692491" width="395.52" id="SvgjsSvg1632"><g><svg viewBox="0 0 395.52 53.82026221692491" height="53.82026221692491" width="395.52"><g transform="matrix(1,0,0,1,0,0)"><svg width="395.52" viewBox="0.5 -34.25 251.68 34.25" height="53.82026221692491" data-palette-color="url(#01cc2076-c7f5-4f57-8e86-4c94f5bac667)"><g class="wordmark-text-0" data-fill-palette-color="primary" id="SvgjsG1631"><path d="M21.75-32.1L32-0.6 32-0.45 23.5-0.45Q23.15-1.65 22.68-3.2 22.2-4.75 21.65-6.5L21.65-6.5 10.85-6.5Q9.85-3 9-0.45L9-0.45 0.5-0.45 0.5-0.55 10.75-32.1 21.75-32.1ZM16.35-26.4L16.15-26.4Q15.65-23.85 14.7-20.2 13.75-16.55 12.7-12.75L12.7-12.75 19.85-12.75Q18.75-16.55 17.8-20.2 16.85-23.85 16.35-26.4L16.35-26.4ZM34.25-7.25L34.4-7.35Q38.3-6.25 43.05-6.25L43.05-6.25Q45.35-6.25 46.5-6.4 47.65-6.55 48.05-6.9 48.45-7.25 48.45-7.85L48.45-7.85Q48.45-8.7 47.82-8.9 47.2-9.1 45.35-9.45L45.35-9.45 41.4-10.2Q37.6-10.95 35.92-12.58 34.25-14.2 34.25-17.45L34.25-17.45Q34.25-21.85 36.87-23.45 39.5-25.05 45.25-25.05L45.25-25.05Q48.7-25.05 51.32-24.68 53.95-24.3 55.7-23.75L55.7-23.75 55.6-17.7 55.45-17.55Q51.4-18.85 46.6-18.85L46.6-18.85Q44.25-18.85 43.32-18.53 42.4-18.2 42.4-17.25L42.4-17.25Q42.4-16.75 42.67-16.45 42.95-16.15 43.95-15.88 44.95-15.6 47.1-15.2L47.1-15.2 50.75-14.5Q53.8-13.85 55.25-12.35 56.7-10.85 56.7-7.6L56.7-7.6Q56.7-4.75 55.65-3.08 54.6-1.4 52.12-0.7 49.65 0 45.3 0L45.3 0Q42 0 39.22-0.33 36.45-0.65 34.25-1.1L34.25-1.1 34.25-7.25ZM61.45-7.75L61.45-7.75 61.45-18.25 58.45-18.25 58.45-24.75 62.2-24.75 63.7-30.7 69.45-30.7 69.45-24.75 74.9-24.75 74.9-18.25 69.45-18.25 69.45-9.5Q69.45-8.1 69.8-7.58 70.15-7.05 71.4-7.05L71.4-7.05Q72.2-7.05 73.1-7.13 74-7.2 74.9-7.3L74.9-7.3 75.05-7.2 75.05-0.7Q72.65 0 68.7 0L68.7 0Q64.75 0 63.1-1.8 61.45-3.6 61.45-7.75ZM87.64-9.25L87.54-0.45 79.54-0.45 79.54-24.8 86.04-24.8 86.69-19.8 86.84-19.8Q87.29-22.6 88.99-23.83 90.69-25.05 94.04-25.05L94.04-25.05Q95.39-25.05 96.49-24.93 97.59-24.8 98.34-24.7L98.34-24.7 98.34-16.9 98.24-16.8Q97.44-17 96.42-17.15 95.39-17.3 94.09-17.3L94.09-17.3Q92.24-17.3 90.77-16.7 89.29-16.1 88.47-14.38 87.64-12.65 87.64-9.25L87.64-9.25 87.64-9.25ZM100.09-12.45L100.09-12.45Q100.09-19.15 102.94-22.1 105.79-25.05 112.59-25.05L112.59-25.05Q117.14-25.05 119.89-23.75 122.64-22.45 123.87-19.68 125.09-16.9 125.09-12.45L125.09-12.45Q125.09-8.05 123.87-5.3 122.64-2.55 119.89-1.28 117.14 0 112.59 0L112.59 0Q105.79 0 102.94-2.93 100.09-5.85 100.09-12.45ZM112.59-6.85L112.59-6.85Q115.49-6.85 116.52-8.13 117.54-9.4 117.54-12.6L117.54-12.6Q117.54-15.65 116.52-16.98 115.49-18.3 112.59-18.3L112.59-18.3Q109.79-18.3 108.72-16.98 107.64-15.65 107.64-12.6L107.64-12.6Q107.64-9.4 108.72-8.13 109.79-6.85 112.59-6.85ZM137.34-8.2L137.34-0.45 129.34-0.45 129.34-32.1 143.44-32.1Q148.19-32.1 151.04-30.95 153.89-29.8 155.14-27.2 156.39-24.6 156.39-20.15L156.39-20.15Q156.39-15.95 155.14-13.33 153.89-10.7 151.04-9.45 148.19-8.2 143.44-8.2L143.44-8.2 137.34-8.2ZM142.14-25.55L142.14-25.55 137.34-25.55 137.34-14.75 142.14-14.75Q145.69-14.75 146.89-15.95 148.09-17.15 148.09-20.15L148.09-20.15Q148.09-23 146.89-24.28 145.69-25.55 142.14-25.55ZM182.09-6.8L182.09-1.25Q180.69-0.75 178.21-0.38 175.74 0 172.34 0L172.34 0Q168.04 0 165.01-1.13 161.99-2.25 160.44-4.98 158.89-7.7 158.89-12.55L158.89-12.55Q158.89-19.15 161.91-22.1 164.94-25.05 171.29-25.05L171.29-25.05Q175.84-25.05 178.46-23.75 181.09-22.45 182.21-20.08 183.34-17.7 183.34-14.45L183.34-14.45Q183.34-13.5 183.26-12.4 183.19-11.3 182.99-10.25L182.99-10.25 182.79-10.05 166.34-10.05Q166.69-7.85 168.41-7.15 170.14-6.45 174.04-6.45L174.04-6.45Q176.64-6.45 178.36-6.58 180.09-6.7 181.89-6.95L181.89-6.95 182.09-6.8ZM166.19-15.3L176.39-15.3Q176.39-16.5 176.01-17.38 175.64-18.25 174.54-18.73 173.44-19.2 171.29-19.2L171.29-19.2Q168.14-19.2 167.16-18.13 166.19-17.05 166.19-15.3L166.19-15.3ZM210.38-0.45L202.78-0.45 202.48-4 202.28-4Q201.43-2 199.86-1 198.28 0 195.28 0L195.28 0Q190.43 0 188.18-2.83 185.93-5.65 185.83-11.35L185.83-11.35Q185.78-16.45 186.88-19.45 187.98-22.45 190.33-23.75 192.68-25.05 196.33-25.05L196.33-25.05Q198.23-25.05 199.78-24.73 201.33-24.4 202.28-23.85L202.28-23.85 202.38-23.9 202.38-34.1 210.38-34.1 210.38-0.45ZM197.88-6.8L197.88-6.8Q199.88-6.8 201.13-8.05 202.38-9.3 202.38-12.2L202.38-12.2 202.38-17.45Q200.53-18.2 198.03-18.2L198.03-18.2Q195.68-18.2 194.66-17.07 193.63-15.95 193.63-12.55L193.63-12.55Q193.63-9.65 194.46-8.22 195.28-6.8 197.88-6.8ZM223.93-33.85L223.93-33.85Q224.08-32.05 224.08-30.85L224.08-30.85Q224.08-30.15 224.06-29.43 224.03-28.7 223.93-27.8L223.93-27.8Q222.88-27.6 221.88-27.5 220.88-27.4 219.88-27.4L219.88-27.4Q218.93-27.4 217.96-27.5 216.98-27.6 215.98-27.8L215.98-27.8Q215.88-28.65 215.83-29.38 215.78-30.1 215.78-30.8L215.78-30.8Q215.78-31.45 215.83-32.2 215.88-32.95 215.98-33.85L215.98-33.85Q216.98-34.1 218.01-34.18 219.03-34.25 220.03-34.25L220.03-34.25Q220.98-34.25 221.96-34.18 222.93-34.1 223.93-33.85ZM223.93-24.8L223.93-0.45 215.93-0.45 215.93-24.8 223.93-24.8ZM238.73-25.05L238.73-25.05Q243.53-25.05 246.48-24.05 249.43-23.05 250.8-20.38 252.18-17.7 252.18-12.65L252.18-12.65 252.18-0.45 244.93-0.45 244.68-2.75 244.53-2.75Q243.58-1.5 241.58-0.75 239.58 0 236.38 0L236.38 0Q227.73 0 227.73-8.1L227.73-8.1Q227.73-11.55 230-13.53 232.28-15.5 237.18-15.5L237.18-15.5 244.58-15.5Q244.23-17.6 242.78-18.32 241.33-19.05 237.83-19.05L237.83-19.05Q235.63-19.05 233.5-18.73 231.38-18.4 229.78-18L229.78-18 229.63-18.1 229.68-23.9Q230.68-24.2 232.23-24.48 233.78-24.75 235.5-24.9 237.23-25.05 238.73-25.05ZM238.43-5.9L238.43-5.9Q241.53-5.9 243.08-6.68 244.63-7.45 244.68-9.15L244.68-9.15 244.68-10.4 239.03-10.4Q236.83-10.4 235.95-9.78 235.08-9.15 235.08-8.1L235.08-8.1Q235.08-6.85 235.98-6.38 236.88-5.9 238.43-5.9Z" fill="black"></path></g></svg></g></svg></g></svg></g></svg></g><g><svg viewBox="0 0 74.37960238379023 74.37960238379023" height="74.37960238379023" width="74.37960238379023"><g><svg xmlns="http://www.w3.org/2000/svg" xmlns:xlink="http://www.w3.org/1999/xlink" version="1.1" x="0" y="0" viewBox="3 3 42 42" enable-background="new 0 0 48 48" xml:space="preserve" height="74.37960238379023" width="74.37960238379023" class="icon-icon-0" data-fill-palette-color="accent" id="SvgjsSvg1630"><path fill-rule="evenodd" clip-rule="evenodd" d="M24 45C12.402 45 3 35.598 3 24S12.402 3 24 3s21 9.402 21 21S35.598 45 24 45zM24 5C13.507 5 5 13.507 5 24s8.507 19 19 19 19-8.507 19-19S34.493 5 24 5zM40 25h-1c-0.553 0-1-0.447-1-1s0.447-1 1-1h1c0.553 0 1 0.447 1 1S40.553 25 40 25zM33.979 33.204c-0.032 0.188-0.115 0.367-0.261 0.514-0.308 0.307-0.762 0.355-1.129 0.172l0.058 0.059 0.008 0.008 0 0 0 0c-0.162-0.067-0.306-0.13-0.464-0.195-5.189-2.162-8.213-3.856-9.867-4.938-1.313-0.858-1.775-1.333-1.794-1.353-0.045-0.043-2.488-2.412-6.485-12.125l0.001 0c0 0 0 0-0.001 0l0.067 0.067c-0.01-0.02-0.012-0.042-0.02-0.062C14 15.139 13.99 14.908 14.054 14.69c0.044-0.147 0.111-0.29 0.229-0.407 0.299-0.299 0.738-0.35 1.101-0.181 0.009 0.004 0.02 0.005 0.028 0.01l-0.023-0.025-0.043-0.042c0 0 0 0 0.001 0l-0.001 0c9.713 3.997 12.082 6.44 12.125 6.485 0.045 0.043 2.488 2.413 6.485 12.125l-0.001-0.001c0.001 0 0.001 0.001 0.001 0.001l-0.044-0.044-0.023-0.022c0.023 0.047 0.032 0.097 0.048 0.146C33.986 32.888 34.006 33.047 33.979 33.204zM26.046 21.933c-0.021-0.021-2.016-1.927-9.187-5.073 3.146 7.171 5.055 9.167 5.095 9.208 0.021 0.021 2.016 1.928 9.187 5.073C27.995 23.969 26.086 21.974 26.046 21.933zM24 23c0.553 0 1 0.447 1 1s-0.447 1-1 1-1-0.447-1-1S23.447 23 24 23zM24 10c-0.553 0-1-0.448-1-1V8c0-0.552 0.447-1 1-1s1 0.448 1 1v1C25 9.552 24.553 10 24 10zM24 38c0.553 0 1 0.447 1 1v1c0 0.553-0.447 1-1 1s-1-0.447-1-1v-1C23 38.447 23.447 38 24 38zM9 25H8c-0.553 0-1-0.447-1-1s0.447-1 1-1h1c0.553 0 1 0.447 1 1S9.553 25 9 25z" fill="black"></path></svg></g></svg></g></svg></g><defs><mask></mask></defs></svg><rect width="395.52" height="58.81788798241398" fill="black" stroke="none" visibility="hidden"></rect></g></mask></svg><rect width="395.52" height="58.81788798241398" fill="black" stroke="none" visibility="hidden"></rect></g></mask><linearGradient x1="0" x2="1" y1="0.578" y2="0.595" id="152f6aa8-5617-4bba-9f0e-bdd8d93af889"><stop stop-color="#6ee2f5" offset="0"></stop><stop stop-color="#6454f0" offset="1"></stop></linearGradient><rect width="395.52" height="58.81788798241398" fill="url(#152f6aa8-5617-4bba-9f0e-bdd8d93af889)" mask="url(#d948739a-cd25-4e78-88bd-834e6a35729a)" data-fill-palette-color="accent"></rect></svg><rect width="395.52" height="58.81788798241398" fill="none" stroke="none" visibility="hidden"></rect></g></svg></g></svg>